<?xml version="1.0" encoding="utf-8"?>
<!-- Generator: Adobe Illustrator 21.1.0, SVG Export Plug-In . SVG Version: 6.00 Build 0)  -->
<svg version="1.1" id="Layer_1" xmlns="http://www.w3.org/2000/svg" xmlns:xlink="http://www.w3.org/1999/xlink" x="0px" y="0px"
	 viewBox="0 0 50 50" style="enable-background:new 0 0 50 50;" xml:space="preserve">
<style type="text/css">
	.st0{fill:#FFFFFF;}
</style>
<g>
	<path class="st0" d="M34.4,15.1l4-5.9c1.6-0.6,2.7-2,2.7-3.8c0-2.2-1.8-4-4-4s-4,1.8-4,4c0,0.3,0,0.6,0.1,0.8l-4.4,6.5
		c-2.4-0.5-4.9-0.5-7.4,0l-4.4-6.5C17,6.1,17,5.8,17,5.5c0-2.2-1.8-4-4-4s-4,1.8-4,4c0,1.7,1.1,3.2,2.7,3.8l4,5.9
		c-5.3,3.2-8.6,9-8.6,15.4c0,9.9,8.1,18,18,18c9.9,0,18-8.1,18-18C43,24.2,39.7,18.4,34.4,15.1z"/>
	<path d="M13,3.5c-1.1,0-2,0.9-2,2c0,1.1,0.8,1.9,1.9,2l5.7,8.4C12.9,18.3,9,24,9,30.5c0,8.8,7.2,16,16,16s16-7.2,16-16
		c0-6.5-3.9-12.2-9.6-14.6l5.7-8.4c1.1-0.1,1.9-0.9,1.9-2c0-1.1-0.9-2-2-2s-2,0.9-2,2c0,0.4,0.1,0.8,0.3,1.1l-5.8,8.6
		c-1.4-0.4-3-0.7-4.5-0.7s-3.1,0.2-4.5,0.7l-5.8-8.6C14.9,6.3,15,5.9,15,5.5C15,4.4,14.1,3.5,13,3.5z M25,16.5c7.7,0,14,6.3,14,14
		s-6.3,14-14,14s-14-6.3-14-14S17.3,16.5,25,16.5z M25,18.5c-6.6,0-12,5.4-12,12s5.4,12,12,12c1.3,0,2.6-0.2,3.9-0.6l-2.5-5.3
		l-4.3,4v-16l13,10l-6,0.8l2.5,5.3c3.3-2.1,5.4-5.8,5.4-10C37,23.9,31.6,18.5,25,18.5z"/>
</g>
<text transform="matrix(1 0 0 1 297.6401 420.9452)" style="font-family:'MyriadPro-Regular'; font-size:12px;">autoCleanupSourceBuffer</text>
<text transform="matrix(1 0 0 1 297.6401 420.9452)" style="font-family:'MyriadPro-Regular'; font-size:12px;">autoCleanupSourceBuffer</text>
</svg>
